<svg xmlns="http://www.w3.org/2000/svg" viewBox="0 0 200 200" fill="none">
  <!-- Background circle -->
  <circle cx="100" cy="100" r="90" fill="#f1f5f9" class="dark:fill-slate-800"/>
  
  <!-- Calendar base -->
  <rect x="45" y="55" width="110" height="100" rx="8" fill="#94a3b8" class="dark:fill-slate-600"/>
  <rect x="45" y="55" width="110" height="30" rx="8" fill="#3b82f6" class="dark:bg-blue-500"/>
  
  <!-- Calendar header line -->
  <rect x="45" y="80" width="110" height="5" fill="#3b82f6" class="dark:bg-blue-500"/>
  
  <!-- Calendar rings -->
  <rect x="75" y="48" width="8" height="14" rx="4" fill="#94a3b8" class="dark:fill-slate-600"/>
  <rect x="117" y="48" width="8" height="14" rx="4" fill="#94a3b8" class="dark:fill-slate-600"/>
  
  <!-- Calendar days grid (simplified) -->
  <rect x="55" y="95" width="20" height="15" rx="3" fill="#e2e8f0" class="dark:fill-slate-700"/>
  <rect x="80" y="95" width="20" height="15" rx="3" fill="#e2e8f0" class="dark:fill-slate-700"/>
  <rect x="105" y="95" width="20" height="15" rx="3" fill="#e2e8f0" class="dark:fill-slate-700"/>
  <rect x="130" y="95" width="15" height="15" rx="3" fill="#ef4444" class="dark:bg-red-500"/>
  
  <rect x="55" y="115" width="20" height="15" rx="3" fill="#e2e8f0" class="dark:fill-slate-700"/>
  <rect x="80" y="115" width="20" height="15" rx="3" fill="#e2e8f0" class="dark:fill-slate-700"/>
  <rect x="105" y="115" width="20" height="15" rx="3" fill="#e2e8f0" class="dark:fill-slate-700"/>
  <rect x="130" y="115" width="15" height="15" rx="3" fill="#e2e8f0" class="dark:fill-slate-700"/>
  
  <!-- Minus sign overlay -->
  <circle cx="145" cy="45" r="16" fill="#ef4444" class="dark:bg-red-500"/>
  <rect x="136" y="42" width="18" height="6" rx="3" fill="white"/>
  
  <!-- Small decorative elements -->
  <circle cx="35" cy="70" r="4" fill="#cbd5e1" class="dark:fill-slate-700"/>
  <circle cx="30" cy="85" r="3" fill="#e2e8f0" class="dark:fill-slate-600"/>
  <circle cx="170" cy="130" r="4" fill="#cbd5e1" class="dark:fill-slate-700"/>
  <circle cx="175" cy="115" r="3" fill="#e2e8f0" class="dark:fill-slate-600"/>
</svg>
